<?xml version="1.0" encoding="UTF-8"?>
<svg xmlns="http://www.w3.org/2000/svg" width="140" height="31.466" viewBox="0 0 140 31.466">
  <g id="Gruppe_266" data-name="Gruppe 266" transform="translate(0 0)">
    <path id="Pfad_153" data-name="Pfad 153" d="M207.6,42.52h-4.257l-3.975,7.423h-.154l-3.975-7.423h-4.462l6.411,11.4V60.5h4.052V53.9Zm-28.269,0c-1.769,0-2.59.257-3.231.873-1.026.95-1.769,2.594-1.769,8.117,0,5.5.744,7.141,1.769,8.117.641.617,1.462.873,3.231.873h5.513c1.667,0,2.59-.257,3.257-.9,1-.95,1.667-2.492,1.667-6.627V50.739h-8.1v3.082h4.026v.514c0,1.721-.359,2.414-.59,2.646-.18.154-.41.257-1.205.231h-3.436c-.846,0-1.051-.077-1.231-.231-.256-.257-.616-1.079-.616-5.471,0-4.418.359-5.214.616-5.445.179-.18.385-.257,1.231-.257h3.359c.821,0,1.051.1,1.205.257.231.206.513.565.564,2.363h4.026c-.051-3.134-.513-4.213-1.462-5.086-.641-.617-1.487-.822-3.308-.822ZM160.5,51.51c0-4.572.333-5.214.564-5.42.179-.18.41-.257,1.231-.257h3.41c.821,0,1.051.077,1.231.257.231.206.564.848.564,5.42,0,4.546-.333,5.188-.564,5.42-.18.154-.41.257-1.231.231H162.3c-.821,0-1.051-.077-1.231-.231-.231-.231-.564-.848-.564-5.42m.718-8.99c-1.769,0-2.59.257-3.231.873-1.026.95-1.769,2.594-1.769,8.117,0,5.5.744,7.141,1.769,8.117.641.617,1.462.873,3.231.873h5.565c1.769,0,2.59-.257,3.231-.873,1.026-.976,1.769-2.62,1.769-8.117,0-5.523-.744-7.166-1.769-8.117-.641-.617-1.462-.873-3.231-.873Zm-15.519,0h-4.18V60.5h12.719V57.187H145.7Zm-18.434,8.99c0-4.572.333-5.214.564-5.42.18-.18.41-.257,1.231-.257h3.411c.821,0,1.051.077,1.231.257.231.206.564.848.564,5.42,0,4.546-.333,5.188-.564,5.42-.18.154-.41.257-1.231.231H129.06c-.821,0-1.051-.077-1.231-.231-.231-.231-.564-.848-.564-5.42m.718-8.99c-1.769,0-2.59.257-3.231.873-1.026.95-1.769,2.594-1.769,8.117,0,5.5.744,7.141,1.769,8.117.641.617,1.462.873,3.231.873h5.565c1.769,0,2.59-.257,3.231-.873,1.026-.976,1.769-2.62,1.769-8.117,0-5.523-.744-7.166-1.769-8.117-.641-.617-1.462-.873-3.231-.873Zm-7.993,0h-4.205V60.5h4.205ZM108.136,56.031V60.5h4.278s0-2.142,0-4.752-.974-3.134-2.821-3.519v-.051c2.077-.36,3-1.31,3-4.546,0-2.594-.41-3.545-1.154-4.29-.616-.617-1.539-.822-3.026-.822H97.853V60.5h4.18V53.693h3.846c1.077,0,1.436.1,1.744.36.308.282.513.6.513,1.978m-6.1-5.445v-4.8h4.462c.872,0,1.128.077,1.282.206.256.231.487.719.487,2.158,0,1.464-.231,1.952-.487,2.209-.154.128-.41.231-1.282.231ZM95.5,45.859V42.52H80.344v3.339h5.462V60.5h4.18V45.859Z" transform="translate(-67.603 -35.778)" fill="#fff"></path>
    <path id="Pfad_154" data-name="Pfad 154" d="M9.587,31.468H5.6a1.189,1.189,0,0,1-1.189-1.189V24.724H1.189A1.189,1.189,0,0,1,.155,22.948l4.251-7.484V1.191A1.189,1.189,0,0,1,5.6,0H9.587a1.189,1.189,0,1,1,0,2.379h-2.8v13.4a1.19,1.19,0,0,1-.155.587l-3.4,5.981H5.6a1.189,1.189,0,0,1,1.189,1.189v5.554h2.8a1.189,1.189,0,1,1,0,2.379Z" transform="translate(0 -0.002)" fill="#ffcb00"></path>
  </g>
</svg>
